<?xml version="1.0" encoding="utf-8"?>
<!-- Generator: Adobe Illustrator 22.0.1, SVG Export Plug-In . SVG Version: 6.00 Build 0)  -->
<svg version="1.1" id="Calque_1" xmlns="http://www.w3.org/2000/svg" xmlns:xlink="http://www.w3.org/1999/xlink" x="0px" y="0px"
	 viewBox="0 0 200 200" style="enable-background:new 0 0 200 200;" xml:space="preserve">
<style type="text/css">
	.st0{fill:url(#SVGID_1_);}
	.st1{fill:url(#SVGID_2_);}
	.st2{fill:url(#SVGID_3_);}
	.st3{fill:url(#SVGID_4_);}
	.st4{fill:url(#SVGID_5_);}
	.st5{fill:url(#SVGID_6_);}
</style>
<g>
	<linearGradient id="SVGID_1_" gradientUnits="userSpaceOnUse" x1="129.5484" y1="53.7971" x2="190.7668" y2="161.1388">
		<stop  offset="0" style="stop-color:#791EA0"/>
		<stop  offset="9.255433e-02" style="stop-color:#8F3DAB"/>
		<stop  offset="0.2464" style="stop-color:#B06ABB"/>
		<stop  offset="0.4012" style="stop-color:#CA90C8"/>
		<stop  offset="0.5547" style="stop-color:#DFADD3"/>
		<stop  offset="0.7066" style="stop-color:#EEC1DA"/>
		<stop  offset="0.8559" style="stop-color:#F7CEDF"/>
		<stop  offset="1" style="stop-color:#FAD2E0"/>
	</linearGradient>
	<path class="st0" d="M182,159.2L182,159.2c-5,0-9.6-2.7-12.1-7l-49.2-85.1c-7.2-12.5,1.8-28.1,16.2-28.1l0,0l57.3,99.1
		C199.5,147.5,192.8,159.2,182,159.2z"/>
	<linearGradient id="SVGID_2_" gradientUnits="userSpaceOnUse" x1="55.2715" y1="53.5445" x2="120.1176" y2="167.2471">
		<stop  offset="0" style="stop-color:#791EA0"/>
		<stop  offset="9.255433e-02" style="stop-color:#8F3DAB"/>
		<stop  offset="0.2464" style="stop-color:#B06ABB"/>
		<stop  offset="0.4012" style="stop-color:#CA90C8"/>
		<stop  offset="0.5547" style="stop-color:#DFADD3"/>
		<stop  offset="0.7066" style="stop-color:#EEC1DA"/>
		<stop  offset="0.8559" style="stop-color:#F7CEDF"/>
		<stop  offset="1" style="stop-color:#FAD2E0"/>
	</linearGradient>
	<path class="st1" d="M99.7,159.2L99.7,159.2L46.5,67.1C39.3,54.6,48.3,39,62.7,39l0,0l53.2,92.1
		C123.1,143.6,114.1,159.2,99.7,159.2z"/>
	<linearGradient id="SVGID_3_" gradientUnits="userSpaceOnUse" x1="100.7943" y1="68.3943" x2="136.1176" y2="130.3309">
		<stop  offset="0" style="stop-color:#FCEDEA"/>
		<stop  offset="1" style="stop-color:#FAD2E0"/>
	</linearGradient>
	<path class="st2" d="M153,67l-53.2,92.1c-5.3,0-9.9-2.2-13.2-5.5c-5.6-5.6-7.5-14.7-3-22.6L136.8,39c2.8,0,5.4,0.6,7.7,1.6
		C154.1,44.9,158.8,57,153,67z"/>
	<linearGradient id="SVGID_4_" gradientUnits="userSpaceOnUse" x1="78.2057" y1="148.3056" x2="145.8788" y2="43.2255">
		<stop  offset="0" style="stop-color:#08A5FD"/>
		<stop  offset="0" style="stop-color:#FCEDEA"/>
		<stop  offset="1" style="stop-color:#FAD2E0"/>
	</linearGradient>
	<path class="st3" d="M143,56l-56.4,97.6c-5.6-5.6-7.5-14.7-3-22.6L136.8,39c0,0,0.1,0,0.1,0c5.2,0,9.1,4.7,8.5,9.8
		C145.1,51.3,144.3,53.7,143,56z"/>
	<linearGradient id="SVGID_5_" gradientUnits="userSpaceOnUse" x1="24.5113" y1="69.3847" x2="58.9467" y2="129.7643">
		<stop  offset="0" style="stop-color:#FCEDEA"/>
		<stop  offset="1" style="stop-color:#FAD2E0"/>
	</linearGradient>
	<path class="st4" d="M78.8,67l-49.2,85.1c-2.5,4.3-7.1,7-12.1,7c-2.6,0-4.9-0.6-6.9-1.8c-0.4-0.2-0.8-0.5-1.1-0.7
		c-5.6-3.9-8-11.8-4.2-18.6L62.6,39h0.1c0.2,0,0.3,0,0.5,0c3.6,0.1,6.9,1.2,9.6,3C80.7,47.2,84.1,58,78.8,67z"/>
	<linearGradient id="SVGID_6_" gradientUnits="userSpaceOnUse" x1="-5.4499" y1="158.008" x2="61.3698" y2="63.116">
		<stop  offset="0" style="stop-color:#FCEDEA"/>
		<stop  offset="1" style="stop-color:#FAD2E0"/>
	</linearGradient>
	<path class="st5" d="M71.2,52.6c-0.2,0.4-0.4,0.9-0.7,1.3l-56.8,98.3c-0.4,0.7-1.8,3.1-3.1,5.2c-0.4-0.2-0.8-0.5-1.1-0.7
		c-5.6-3.9-8-11.8-4.2-18.6L62.6,39h0.1c0.2,0,0.3,0,0.5,0C69.8,39.4,74.1,46.6,71.2,52.6z"/>
</g>
</svg>
